<?xml version="1.0" encoding="UTF-8"?>
<svg xmlns="http://www.w3.org/2000/svg" xmlns:xlink="http://www.w3.org/1999/xlink" id="Groupe_50" data-name="Groupe 50" width="151.555" height="78.809" viewBox="0 0 151.555 78.809">
  <defs>
    <clipPath id="clip-path">
      <rect id="Rectangle_101" data-name="Rectangle 101" width="151.555" height="78.809" fill="none"></rect>
    </clipPath>
  </defs>
  <g id="Groupe_50-2" data-name="Groupe 50" clip-path="url(#clip-path)">
    <path id="Tracé_226" data-name="Tracé 226" d="M12.162,248.528a6.415,6.415,0,0,1-4.976,2.2,5.786,5.786,0,0,1-6.06-6.028,5.9,5.9,0,0,1,6.092-6A6.59,6.59,0,0,1,12.21,241l-1.531,1.467a4.688,4.688,0,0,0-3.509-1.675A3.854,3.854,0,0,0,3.263,244.7a3.789,3.789,0,0,0,3.955,3.939,4.579,4.579,0,0,0,3.461-1.659Z" transform="translate(-0.901 -190.957)" fill="#003051"></path>
    <rect id="Rectangle_96" data-name="Rectangle 96" width="2.121" height="11.738" transform="translate(12.666 47.747)" fill="#003051"></rect>
    <path id="Tracé_227" data-name="Tracé 227" d="M83,255.048h2.121v4.418c0,1.515.478,2.313,1.595,2.313,1.132,0,1.595-.782,1.595-2.217v-4.513h2.121v3.907c0,1.563-.1,2.711-.989,3.7a3.391,3.391,0,0,1-2.727,1.068,3.337,3.337,0,0,1-3.636-3.014,9.516,9.516,0,0,1-.08-1.786Z" transform="translate(-66.394 -204.032)" fill="#003051"></path>
    <path id="Tracé_228" data-name="Tracé 228" d="M132.342,250.441h-2.121V238.7h2.121V242.9a3.637,3.637,0,0,1,2.663-1.148,4.158,4.158,0,0,1,4,4.466,4.229,4.229,0,0,1-4.051,4.45,3.545,3.545,0,0,1-2.615-1.117Zm-.1-4.258a2.322,2.322,0,1,0,4.625.016,2.319,2.319,0,1,0-4.625-.016" transform="translate(-104.173 -190.956)" fill="#003051"></path>
    <path id="Tracé_229" data-name="Tracé 229" d="M208.793,249.548a3.52,3.52,0,0,1-2.615,1.117,4.217,4.217,0,0,1-4.035-4.45c0-2.648,1.786-4.465,3.987-4.465a3.637,3.637,0,0,1,2.663,1.148V238.7h2.121v11.738h-2.121ZM204.28,246.2a2.312,2.312,0,1,0,2.281-2.5,2.308,2.308,0,0,0-2.281,2.5" transform="translate(-161.709 -190.956)" fill="#003051"></path>
    <path id="Tracé_230" data-name="Tracé 230" d="M262.536,260.982a4.78,4.78,0,1,1,.574-2.456c0,.191-.016.287-.016.478h-6.826a2.266,2.266,0,0,0,2.376,1.961,2.742,2.742,0,0,0,2.105-.829Zm-1.563-3.652a2.462,2.462,0,0,0-4.609,0Z" transform="translate(-203.362 -203.14)" fill="#003051"></path>
    <path id="Tracé_231" data-name="Tracé 231" d="M305.61,258.956c-1.355-.686-2.041-1.515-2.041-2.583a2.551,2.551,0,0,1,2.743-2.44,3.445,3.445,0,0,1,2.791,1.4L307.8,256.66a2.174,2.174,0,0,0-1.467-.781c-.431,0-.766.175-.766.51,0,.319.3.462.766.7l.781.4c1.4.718,2.153,1.451,2.153,2.711,0,1.515-1.2,2.647-3.046,2.647a3.578,3.578,0,0,1-2.966-1.451l1.308-1.435a2.658,2.658,0,0,0,1.77.989c.526,0,.941-.3.941-.686,0-.367-.351-.638-.941-.941Z" transform="translate(-242.592 -203.14)" fill="#003051"></path>
    <path id="Tracé_232" data-name="Tracé 232" d="M364.168,240.138h6.252v2.137h-4.067v2.041h4.067v2.137h-4.067v3h4.067v2.137h-6.252Z" transform="translate(-291.325 -192.104)" fill="#003051"></path>
    <path id="Tracé_233" data-name="Tracé 233" d="M405.917,255.017a3.771,3.771,0,0,1,2.5-1.084,2.787,2.787,0,0,1,2.9,2.9v5.789H409.2v-4c0-1.674-.143-2.743-1.435-2.743a1.663,1.663,0,0,0-1.435.813,4.153,4.153,0,0,0-.415,2.328v3.6H403.8v-8.469h2.121Z" transform="translate(-323.026 -203.14)" fill="#003051"></path>
    <path id="Tracé_234" data-name="Tracé 234" d="M448.019,239.421h2.121v3.126h1.26v1.818h-1.26v6.65h-2.121v-6.65h-1.085v-1.818h1.085Z" transform="translate(-357.535 -191.53)" fill="#003051"></path>
    <path id="Tracé_235" data-name="Tracé 235" d="M473.8,255.225a1.918,1.918,0,0,1,2.711-1.069l-.654,1.818a1.488,1.488,0,0,0-.622-.176c-.606,0-1.085.7-1.132,1.946-.016.462-.016.989-.016,1.451v3.429h-2.121v-8.469H473.8Z" transform="translate(-377.564 -203.14)" fill="#003051"></path>
    <path id="Tracé_236" data-name="Tracé 236" d="M505.174,260.982a4.78,4.78,0,1,1,.574-2.456c0,.191-.016.287-.016.478h-6.826a2.266,2.266,0,0,0,2.376,1.961,2.741,2.741,0,0,0,2.105-.829Zm-1.563-3.652a2.462,2.462,0,0,0-4.609,0Z" transform="translate(-397.466 -203.14)" fill="#003051"></path>
    <path id="Tracé_237" data-name="Tracé 237" d="M551.357,255.08a3.637,3.637,0,0,1,2.663-1.148,4.159,4.159,0,0,1,4,4.466,4.229,4.229,0,0,1-4.051,4.45,3.545,3.545,0,0,1-2.616-1.117v3.987h-2.122V254.155h2.122Zm-.1,3.285a2.322,2.322,0,1,0,4.625.016,2.319,2.319,0,1,0-4.625-.016" transform="translate(-439.373 -203.139)" fill="#003051"></path>
    <path id="Tracé_238" data-name="Tracé 238" d="M600.668,255.225a1.918,1.918,0,0,1,2.711-1.069l-.654,1.818a1.488,1.488,0,0,0-.622-.176c-.606,0-1.084.7-1.132,1.946-.016.462-.016.989-.016,1.451v3.429h-2.121v-8.469h1.834Z" transform="translate(-479.051 -203.14)" fill="#003051"></path>
    <path id="Tracé_239" data-name="Tracé 239" d="M626.421,238.99a1.355,1.355,0,0,1-1.356,1.356,1.412,1.412,0,0,1-1.356-1.467,1.322,1.322,0,0,1,1.356-1.292,1.375,1.375,0,0,1,1.356,1.4m-2.408,2.089h2.121v8.469h-2.121Z" transform="translate(-498.952 -190.063)" fill="#003051"></path>
    <path id="Tracé_240" data-name="Tracé 240" d="M643.853,258.956c-1.356-.686-2.042-1.515-2.042-2.583a2.551,2.551,0,0,1,2.743-2.44,3.445,3.445,0,0,1,2.791,1.4l-1.308,1.324a2.173,2.173,0,0,0-1.467-.781c-.43,0-.765.175-.765.51,0,.319.3.462.765.7l.781.4c1.4.718,2.153,1.451,2.153,2.711,0,1.515-1.2,2.647-3.046,2.647a3.577,3.577,0,0,1-2.966-1.451l1.307-1.435a2.659,2.659,0,0,0,1.77.989c.527,0,.941-.3.941-.686,0-.367-.351-.638-.941-.941Z" transform="translate(-513.177 -203.14)" fill="#003051"></path>
    <path id="Tracé_241" data-name="Tracé 241" d="M685.777,260.982a4.78,4.78,0,1,1,.574-2.456c0,.191-.016.287-.016.478H679.51a2.266,2.266,0,0,0,2.376,1.961,2.741,2.741,0,0,0,2.105-.829Zm-1.563-3.652a2.462,2.462,0,0,0-4.609,0Z" transform="translate(-541.944 -203.14)" fill="#003051"></path>
    <path id="Tracé_242" data-name="Tracé 242" d="M728.852,258.956c-1.356-.686-2.042-1.515-2.042-2.583a2.551,2.551,0,0,1,2.743-2.44,3.445,3.445,0,0,1,2.791,1.4l-1.308,1.324a2.174,2.174,0,0,0-1.467-.781c-.43,0-.765.175-.765.51,0,.319.3.462.765.7l.782.4c1.4.718,2.153,1.451,2.153,2.711,0,1.515-1.2,2.647-3.046,2.647a3.577,3.577,0,0,1-2.966-1.451l1.308-1.435a2.658,2.658,0,0,0,1.77.989c.526,0,.941-.3.941-.686,0-.367-.351-.638-.941-.941Z" transform="translate(-581.174 -203.14)" fill="#003051"></path>
    <path id="Tracé_243" data-name="Tracé 243" d="M139.724,344.48a4.291,4.291,0,0,1-3.413,1.659,4.45,4.45,0,0,1,.032-8.9,4,4,0,0,1,3.381,1.77v-4.816h1.085v11.738h-1.085Zm-6.634-2.775a3.4,3.4,0,0,0,3.333,3.445,3.43,3.43,0,0,0,.016-6.858,3.362,3.362,0,0,0-3.349,3.413" transform="translate(-105.575 -267.346)" fill="#003051"></path>
    <path id="Tracé_244" data-name="Tracé 244" d="M187.55,353.968a3.222,3.222,0,0,0,3.19,3.365,3.553,3.553,0,0,0,3.237-2.025l.909.478a4.234,4.234,0,0,1-4.035,2.536,4.3,4.3,0,0,1-4.418-4.418,4.364,4.364,0,0,1,4.354-4.481,4.315,4.315,0,0,1,4.386,4.545Zm6.427-.957a3.234,3.234,0,0,0-6.315,0Z" transform="translate(-149.142 -279.529)" fill="#003051"></path>
    <path id="Tracé_245" data-name="Tracé 245" d="M263.379,347.079V335.628H265.8c2.408,0,3.509,1.18,3.509,2.791a2.644,2.644,0,0,1-1.467,2.408,3.032,3.032,0,0,1,2.408,2.966c0,1.707-1.324,3.285-3.732,3.285Zm1.148-6.65h.766A3.621,3.621,0,0,0,267.3,340a1.886,1.886,0,0,0,.813-1.579c0-1.021-.765-1.674-2.089-1.674h-1.5Zm0,5.534h1.387c.495,0,.989-.08,1.372-.112a2.118,2.118,0,0,0,1.77-2.041,2.092,2.092,0,0,0-1.116-1.834,5.591,5.591,0,0,0-2.632-.431h-.782Z" transform="translate(-210.696 -268.494)" fill="#003051"></path>
    <path id="Tracé_246" data-name="Tracé 246" d="M314.953,353.9a4.418,4.418,0,1,1-4.418-4.481,4.38,4.38,0,0,1,4.418,4.481m-7.719.016a3.3,3.3,0,1,0,6.6,0,3.3,3.3,0,1,0-6.6,0" transform="translate(-244.886 -279.528)" fill="#003051"></path>
    <path id="Tracé_247" data-name="Tracé 247" d="M359.335,350.874a2.713,2.713,0,0,1,2.185-1.451,1.714,1.714,0,0,1,.973.287l-.574.925a1.294,1.294,0,0,0-.574-.16c-.8,0-1.515.686-1.834,1.85a11.636,11.636,0,0,0-.176,2.568v3.222h-1.148v-8.469h1.148Z" transform="translate(-286.54 -279.529)" fill="#003051"></path>
    <path id="Tracé_248" data-name="Tracé 248" d="M389.779,344.48a4.292,4.292,0,0,1-3.413,1.659,4.45,4.45,0,0,1,.032-8.9,4.005,4.005,0,0,1,3.381,1.77v-4.816h1.085v11.738h-1.085Zm-6.635-2.775a3.4,3.4,0,0,0,3.333,3.445,3.43,3.43,0,0,0,.016-6.858,3.362,3.362,0,0,0-3.349,3.413" transform="translate(-305.612 -267.346)" fill="#003051"></path>
    <path id="Tracé_249" data-name="Tracé 249" d="M437.606,353.968a3.222,3.222,0,0,0,3.189,3.365,3.554,3.554,0,0,0,3.238-2.025l.909.478a4.234,4.234,0,0,1-4.035,2.536,4.3,4.3,0,0,1-4.418-4.418,4.364,4.364,0,0,1,4.354-4.481,4.315,4.315,0,0,1,4.386,4.545Zm6.427-.957a3.234,3.234,0,0,0-6.316,0Z" transform="translate(-349.18 -279.529)" fill="#003051"></path>
    <path id="Tracé_250" data-name="Tracé 250" d="M496.149,349.646h1.069v8.469h-1.069v-1.451a4.291,4.291,0,0,1-3.413,1.659,4.45,4.45,0,0,1,.032-8.9,4.005,4.005,0,0,1,3.381,1.77Zm-6.634,4.242a3.4,3.4,0,0,0,3.333,3.445,3.43,3.43,0,1,0-3.333-3.445" transform="translate(-390.705 -279.529)" fill="#003051"></path>
    <path id="Tracé_251" data-name="Tracé 251" d="M550.354,350.538H551.5v4.386c0,2.855-1.292,4.29-3.716,4.29s-3.732-1.435-3.732-4.29v-4.386H545.2v4.13a5.47,5.47,0,0,0,.239,2.137,2.461,2.461,0,0,0,2.344,1.356,2.644,2.644,0,0,0,1.914-.749c.67-.718.654-1.531.654-2.743Z" transform="translate(-435.229 -280.421)" fill="#003051"></path>
    <path id="Tracé_252" data-name="Tracé 252" d="M587.176,350.538h1.308l2.249,3.126,2.249-3.126h1.292l-2.887,4.019,3.253,4.45h-1.324l-2.583-3.557-2.552,3.557h-1.308l3.205-4.45Z" transform="translate(-469.483 -280.421)" fill="#003051"></path>
    <path id="Tracé_253" data-name="Tracé 253" d="M15.35.5V.558a16.636,16.636,0,0,0,0,33.173v.055H33.282V.5Z" transform="translate(0 -0.402)" fill="#e50855"></path>
    <rect id="Rectangle_97" data-name="Rectangle 97" width="32.782" height="16.698" transform="translate(40.34 0.101)" fill="#7697ca"></rect>
    <rect id="Rectangle_98" data-name="Rectangle 98" width="32.782" height="16.585" transform="translate(40.34 16.798)" fill="#e50855"></rect>
    <path id="Tracé_254" data-name="Tracé 254" d="M422.541,86v-.033a10.11,10.11,0,0,0,0-20.16v-.033H398.527V86Z" transform="translate(-318.811 -52.617)" fill="#e50855"></path>
    <path id="Tracé_255" data-name="Tracé 255" d="M422.541,20.726v-.033a10.11,10.11,0,0,0,0-20.16V.5H398.527V20.726Z" transform="translate(-318.811 -0.4)" fill="#7697ca"></path>
    <path id="Tracé_256" data-name="Tracé 256" d="M422.541,72.911a10.086,10.086,0,0,0,6.924-3.552,10.086,10.086,0,0,0-6.924-3.551v-.033H398.527v7.17h24.014Z" transform="translate(-318.811 -52.618)" fill="#003051"></path>
    <rect id="Rectangle_99" data-name="Rectangle 99" width="10.649" height="33.383" transform="translate(40.046 0)" fill="#003051"></rect>
    <path id="Tracé_257" data-name="Tracé 257" d="M622.618,31.62h0a6.132,6.132,0,0,1-8.672,0L592.91,10.584a6.132,6.132,0,0,1,8.672-8.672l21.035,21.035a6.132,6.132,0,0,1,0,8.672" transform="translate(-472.876 -0.093)" fill="#e50855"></path>
    <path id="Tracé_258" data-name="Tracé 258" d="M592.842,31.553h0a6.19,6.19,0,0,1,0-8.754L613.8,1.845A6.19,6.19,0,0,1,622.55,10.6L601.6,31.553a6.19,6.19,0,0,1-8.754,0" transform="translate(-472.808 -0.026)" fill="#7697ca"></path>
    <rect id="Rectangle_100" data-name="Rectangle 100" width="12.38" height="12.38" transform="translate(126.134 16.673) rotate(-45)" fill="#fff"></rect>
  </g>
</svg>
